<?xml version="1.0" encoding="UTF-8" standalone="no"?>
<!-- Created with Inkscape (http://www.inkscape.org/) -->

<svg
   width="90.317085mm"
   height="67.813637mm"
   viewBox="0 0 90.317085 67.813637"
   version="1.1"
   id="svg5"
   xml:space="preserve"
   inkscape:version="1.2 (dc2aedaf03, 2022-05-15)"
   sodipodi:docname="Copernicus_S1.svg"
   xmlns:inkscape="http://www.inkscape.org/namespaces/inkscape"
   xmlns:sodipodi="http://sodipodi.sourceforge.net/DTD/sodipodi-0.dtd"
   xmlns="http://www.w3.org/2000/svg"
   xmlns:svg="http://www.w3.org/2000/svg"><sodipodi:namedview
     id="namedview7"
     pagecolor="#ffffff"
     bordercolor="#000000"
     borderopacity="0.25"
     inkscape:showpageshadow="2"
     inkscape:pageopacity="0.0"
     inkscape:pagecheckerboard="0"
     inkscape:deskcolor="#d1d1d1"
     inkscape:document-units="mm"
     showgrid="false"
     inkscape:zoom="0.15085051"
     inkscape:cx="4590.6376"
     inkscape:cy="188.92877"
     inkscape:window-width="3200"
     inkscape:window-height="1711"
     inkscape:window-x="1911"
     inkscape:window-y="-9"
     inkscape:window-maximized="1"
     inkscape:current-layer="layer1" /><defs
     id="defs2" /><g
     inkscape:label="Lag 1"
     inkscape:groupmode="layer"
     id="layer1"
     transform="translate(-55.144427,-70.729926)"><ellipse
       style="fill:#333333;stroke-width:0.322198"
       id="path999"
       cx="75.419586"
       cy="125.729"
       rx="9.4822588"
       ry="3.9395225" /><path
       id="rect477-6"
       style="stroke-width:0.264583"
       d="m 104.96842,102.29348 19.37027,4.88868 -6.27228,25.91927 -19.185789,-5.25764 z"
       sodipodi:nodetypes="ccccc" /><path
       id="rect477-7"
       style="stroke-width:0.264583"
       d="m 126.09124,107.7356 19.37027,4.88869 -6.27228,25.91927 -19.18579,-5.25764 z"
       sodipodi:nodetypes="ccccc"
       inkscape:transform-center-x="14.94278"
       inkscape:transform-center-y="-7.2869115" /><path
       id="rect599"
       style="fill:#999999;stroke-width:0.264583"
       d="m 76.760552,78.58059 8.318928,-4.974583 0.860542,12.521952 1.18015,1.707497 -0.02154,3.665763 -1.56709,1.471711 1.531229,-0.322623 0.109166,1.418992 -0.04642,1.09557 1.903969,0.247811 0.03178,0.519966 -1.149145,0.109438 1.625941,24.851016 -11.411294,7.67122 -3.346787,-29.283636 -2.02381,0.278893 -0.531155,-10.945812 3.106808,-2.616564 z"
       sodipodi:nodetypes="ccccccccccccccccccc" /><path
       id="rect599-9"
       style="fill:#b3b3b3;stroke-width:0.264583"
       d="m 58.203052,82.69261 17.097625,3.350069 -3.086544,2.56256 -17.069706,-3.0439 z"
       sodipodi:nodetypes="ccccc" /><path
       id="rect599-0"
       style="fill:#4d4d4d;stroke-width:0.264583"
       d="m 55.186557,85.4966 17.064287,3.136139 0.548017,11.142355 -16.957322,-3.165586 z"
       sodipodi:nodetypes="ccccc" /><path
       id="rect599-00"
       style="fill:#808080;stroke-width:0.264583"
       d="m 60.059982,99.331396 -2.93195,0.0056 -0.116573,-1.016155 0.778683,-0.716155 16.975365,1.666957 3.41757,29.214317 -16.652684,-4.07173 z"
       sodipodi:nodetypes="cccccccc" /><path
       id="rect599-00-6"
       style="fill:#333333;stroke-width:0.264583"
       d="m 58.220695,97.934425 -2.425092,-1.377467 15.005929,2.355686 -8.823759,-0.07975 z"
       sodipodi:nodetypes="ccccc" /><path
       id="rect599-7"
       style="fill:#666666;stroke-width:0.264583"
       d="m 58.813859,75.464601 17.95723,3.174896 -1.402205,7.528756 -17.44255,-3.475646 z"
       sodipodi:nodetypes="ccccc" /><path
       id="rect599-1"
       style="fill:#cccccc;stroke-width:0.264583"
       d="m 66.878029,70.729926 18.175047,2.946241 -8.384478,5.034411 -17.907635,-3.184203 z"
       sodipodi:nodetypes="ccccc" /><path
       id="rect477"
       style="stroke-width:0.264583"
       d="m 84.122318,96.851357 19.370272,4.888683 -6.27228,25.91927 -19.185791,-5.25764 z"
       sodipodi:nodetypes="ccccc" /><path
       id="rect599-05-8"
       style="stroke-width:0.264583"
       d="M 84.767995,98.373303 144.53912,114.054 144.35464,115.16089 84.399038,99.480191 Z"
       sodipodi:nodetypes="ccccc" /><path
       id="rect599-05-8-2"
       style="stroke-width:0.264583"
       d="m 79.602588,119.81895 59.771122,15.6807 -0.18448,1.10689 -59.955599,-15.6807 z"
       sodipodi:nodetypes="ccccc" /><path
       id="rect599-05-2"
       style="stroke-width:0.264583"
       d="m 63.849799,117.225 10.810622,2.01454 0.237961,8.37365 -11.146241,-2.77649 z"
       sodipodi:nodetypes="ccccc" /><path
       id="rect599-05-2-9"
       style="stroke-width:0.264583"
       d="m 58.861244,87.667803 6.934917,1.084371 0.470503,5.583142 -7.037993,-1.07118 z m 4.390265,4.806524"
       sodipodi:nodetypes="ccccc" /><path
       id="rect599-05-2-9-2"
       style="stroke-width:0.264583"
       d="m 56.680778,94.178988 13.833672,2.40211 0.08293,1.862463 -14.014263,-2.156377 z"
       sodipodi:nodetypes="ccccc" /><path
       id="rect599-05-4"
       style="stroke-width:0.130953"
       d="m 61.291128,105.88498 14.297106,2.67494 -0.0093,3.7307 -14.564518,-3.17725 z"
       sodipodi:nodetypes="ccccc" /></g></svg>
